<svg width="56" height="56" viewBox="0 0 56 56" fill="none" xmlns="http://www.w3.org/2000/svg">
<path d="M23.8002 2.42495C26.3991 0.924432 29.6012 0.924432 32.2002 2.42495L48.0489 11.5752C50.6479 13.0757 52.2489 15.8488 52.2489 18.8498V37.1503C52.2489 40.1514 50.6479 42.9244 48.0489 44.4249L32.2002 53.5752C29.6012 55.0757 26.3991 55.0757 23.8002 53.5752L7.95146 44.4249C5.3525 42.9244 3.75146 40.1514 3.75146 37.1503L3.75146 18.8498C3.75146 15.8488 5.3525 13.0757 7.95146 11.5752L23.8002 2.42495Z" fill="#7F5FFF"/>
<path d="M20.1252 28.2428L28.1818 14.875V14.8814L28.1836 14.875L36.2389 28.2409L36.2431 28.2429L28.1866 33.0052V33.0037L28.1836 33.0054L28.1818 33.0036V33.0052L20.1252 28.2428Z" fill="white"/>
<path d="M28.1818 41.1194V41.125L20.125 29.7717L28.1818 34.5315V34.5339L28.1837 34.5315L36.2452 29.7717L28.1837 41.125L28.1818 41.1194Z" fill="white"/>
</svg>
