<svg width="40" height="41" viewBox="0 0 40 41" fill="none" xmlns="http://www.w3.org/2000/svg">
<path d="M17.0002 1.76771C18.8566 0.695918 21.1438 0.695918 23.0002 1.76771L34.3207 8.30361C36.1771 9.37541 37.3207 11.3562 37.3207 13.4998V26.5716C37.3207 28.7152 36.1771 30.6959 34.3207 31.7677L23.0002 38.3036C21.1438 39.3754 18.8566 39.3754 17.0002 38.3036L5.67969 31.7677C3.82328 30.6959 2.67969 28.7152 2.67969 26.5716L2.67969 13.4998C2.67969 11.3562 3.82328 9.37541 5.67969 8.30361L17.0002 1.76771Z" fill="#7F5FFF"/>
<g clip-path="url(#clip0_2684_100)">
<path d="M14.3752 20.209L20.1298 10.6606V10.6652L20.1312 10.6606L25.8849 20.2077L25.888 20.2091L20.1333 23.6108V23.6097L20.1312 23.611L20.1298 23.6096V23.6108L14.3752 20.209Z" fill="white"/>
<path d="M20.1298 29.4066V29.4106L14.375 21.3012L20.1298 24.701V24.7027L20.1312 24.701L25.8894 21.3012L20.1312 29.4106L20.1298 29.4066Z" fill="white"/>
</g>
<defs>
<clipPath id="clip0_2684_100">
<rect width="20" height="20" fill="white" transform="translate(10 10.0356)"/>
</clipPath>
</defs>
</svg>
